<svg xmlns="http://www.w3.org/2000/svg" width="18" height="18" viewBox="0 0 18 18"><line x1="11.5" x2="16.5" y1="4.5" y2="4.5" style="fill:none;stroke:#B13CFF;stroke-linecap:square;stroke-linejoin:round"/><line x1=".5" x2="16.5" y1="6.5" y2="6.5" style="fill:none;stroke:#B13CFF;stroke-linecap:square;stroke-linejoin:round"/><line x1=".5" x2="16.5" y1="8.5" y2="8.5" style="fill:none;stroke:#B13CFF;stroke-linecap:square;stroke-linejoin:round"/><line x1=".5" x2="16.5" y1="10.5" y2="10.5" style="fill:none;stroke:#B13CFF;stroke-linecap:square;stroke-linejoin:round"/><line x1=".5" x2="16.5" y1="12.5" y2="12.5" style="fill:none;stroke:#B13CFF;stroke-linecap:square;stroke-linejoin:round"/><path d="M1.5,14.5h14a1,1,0,0,1,1,1v1a0,0,0,0,1,0,0H.5a0,0,0,0,1,0,0v-1A1,1,0,0,1,1.5,14.5Z" transform="translate(17 31) rotate(180)" style="fill:none;stroke:#949494;stroke-linecap:round;stroke-linejoin:round"/><line x1=".5" x2=".5" y1="12.5" y2="10.5" style="fill:none;stroke:#B13CFF;stroke-linecap:square;stroke-linejoin:round"/><line x1="16.5" x2="16.5" y1="10.5" y2="8.5" style="fill:none;stroke:#B13CFF;stroke-linecap:square;stroke-linejoin:round"/><line x1=".5" x2=".5" y1="8.5" y2="6.5" style="fill:none;stroke:#B13CFF;stroke-linecap:square;stroke-linejoin:round"/><line x1="16.5" x2="16.5" y1="6.5" y2="4.5" style="fill:none;stroke:#B13CFF;stroke-linecap:square;stroke-linejoin:round"/><rect width="1" height="1" x="8" transform="translate(17 1) rotate(-180)" style="fill:#B13CFF;opacity:.25"/><rect width="1" height="1" x="6" transform="translate(13 1) rotate(-180)" style="fill:#B13CFF;opacity:.2"/><rect width="1" height="1" x="4" transform="translate(9 1) rotate(-180)" style="fill:#B13CFF;opacity:.15"/><rect width="1" height="1" x="2" transform="translate(5 1) rotate(-180)" style="fill:#B13CFF;opacity:.1"/><rect width="1" height="1" transform="translate(1 1) rotate(-180)" style="fill:#B13CFF;opacity:.05"/><rect width="1" height="1" x="10" transform="translate(21 1) rotate(-180)" style="fill:#B13CFF;opacity:.3"/><rect width="1" height="1" x="12" transform="translate(25 1) rotate(-180)" style="fill:#B13CFF;opacity:.35000000000000003"/><rect width="1" height="1" x="14" transform="translate(29 1) rotate(-180)" style="fill:#B13CFF;opacity:.4"/><rect width="1" height="1" x="16" transform="translate(33 1) rotate(-180)" style="fill:#B13CFF;opacity:.45"/><rect width="1" height="1" x="16" y="2" transform="translate(33 5) rotate(-180)" style="fill:#B13CFF;opacity:.5"/><rect width="1" height="1" x="14" y="2" transform="translate(29 5) rotate(-180)" style="fill:#B13CFF;opacity:.55"/><rect width="1" height="1" x="12" y="2" transform="translate(25 5) rotate(-180)" style="fill:#B13CFF;opacity:.6"/><rect width="1" height="1" x="10" y="2" transform="translate(21 5) rotate(-180)" style="fill:#B13CFF;opacity:.65"/><rect width="1" height="1" x="8" y="2" transform="translate(17 5) rotate(-180)" style="fill:#B13CFF;opacity:.7000000000000001"/><rect width="1" height="1" x="6" y="2" transform="translate(13 5) rotate(-180)" style="fill:#B13CFF;opacity:.75"/><rect width="1" height="1" x="4" y="2" transform="translate(9 5) rotate(-180)" style="fill:#B13CFF;opacity:.8"/><rect width="1" height="1" x="2" y="2" transform="translate(5 5) rotate(-180)" style="fill:#B13CFF;opacity:.85"/><rect width="1" height="1" y="4" transform="translate(1 9) rotate(-180)" style="fill:#B13CFF;opacity:.9500000000000001"/><rect width="1" height="1" y="2" transform="translate(1 5) rotate(-180)" style="fill:#B13CFF;opacity:.9"/><rect width="1" height="1" x="2" y="4" transform="translate(5 9) rotate(-180)" style="fill:#B13CFF"/><rect width="2" height="1" x="4" y="4" transform="translate(10 9) rotate(-180)" style="fill:#B13CFF"/><rect width="3" height="1" x="7" y="4" transform="translate(17 9) rotate(-180)" style="fill:#B13CFF"/></svg>